# xmcd
#
# Track frame offsets:
# 150
# 11477
# 25625
# 39916
# 52759
# 65102
# 74013
# 87524
# 101872
# 122835
# 135705
# 149019
# 161866
# 175892
# 187974
# 202141
# 216616
# 228329
# 242930
# 256861
# 267311
# 281242
# 295710
# 309841
# 322936
#
# Disc length: 4466 seconds
#
#
# Revision: 0
# Processed by: cddbd v1.5.1PL0 Copyright (c) Steve Scherf et al.
# Submitted via: FreeRIP 2.90 
#
DISCID=83117019
DTITLE=Blind Willie McTell - Roots Of The Blues
DYEAR=2004
DGENRE=Blues
TTITLE0=Statesboro Blues
TTITLE1=Stomp Down Rider
TTITLE2=Stole Rider Blues
TTITLE3=Dark Night Blues
TTITLE4=Three Women Blues
TTITLE5=Bol Weevil
TTITLE6=My Baby's Gone
TTITLE7=Atlanta Strut
TTITLE8=I Got To Cross De River O' Jordan
TTITLE9=Chainey
TTITLE10=Mama 'Taint Long Fo' Day
TTITLE11=B And O Blues #2
TTITLE12=Murderer's Home Blues
TTITLE13=Hide Me In Thy Bosom
TTITLE14=Broke Down Engine Blues
TTITLE15=Dying Crapshooter's Blues
TTITLE16=Delia
TTITLE17=Drive Away Blues
TTITLE18=Georgia Rag
TTITLE19=Good Little Thing
TTITLE20=It's Your Time To Worry
TTITLE21=I've Got Religion, I'm So Glad
TTITLE22=Talkin To You Mama
TTITLE23=Painful Blues
TTITLE24=Honey It Must Be Love
EXTD=
EXTT0=
EXTT1=
EXTT2=
EXTT3=
EXTT4=
EXTT5=
EXTT6=
EXTT7=
EXTT8=
EXTT9=
EXTT10=
EXTT11=
EXTT12=
EXTT13=
EXTT14=
EXTT15=
EXTT16=
EXTT17=
EXTT18=
EXTT19=with Curley Weaver
EXTT20=with Curley Weaver
EXTT21=with Katie McTell
EXTT22=with Curley Weaver
EXTT23=with Ruth Willis
EXTT24=with Curley Weaver
PLAYORDER=
